<svg xmlns="http://www.w3.org/2000/svg" viewBox="0 0 80 80" width="100%" height="100%">
  <defs>
    <linearGradient id="wbsscGold" x1="0%" y1="0%" x2="100%" y2="100%">
      <stop offset="0%" stop-color="#FDE047" />
      <stop offset="50%" stop-color="#F59E0B" />
      <stop offset="100%" stop-color="#B45309" />
    </linearGradient>
    <linearGradient id="wbsscRed" x1="0%" y1="0%" x2="0%" y2="100%">
      <stop offset="0%" stop-color="#EF4444" />
      <stop offset="100%" stop-color="#991B1B" />
    </linearGradient>
    <filter id="wbsscShadow" x="-20%" y="-20%" width="140%" height="140%">
      <feDropShadow dx="0" dy="1.5" stdDeviation="1.5" flood-opacity="0.2"/>
    </filter>
  </defs>
  
  <!-- Top Finial / Star Crown -->
  <path d="M40 8 L43 14 L49 15 L44 19 L46 25 L40 21 L34 25 L36 19 L31 15 L37 14 Z" fill="url(#wbsscGold)" filter="url(#wbsscShadow)"/>
  
  <!-- Outer Gold Laurel / Crescent -->
  <path d="M22 34 C20 48 30 62 40 65 C50 62 60 48 58 34 C56 25 49 20 40 20 C31 20 24 25 22 34 Z" fill="url(#wbsscGold)" filter="url(#wbsscShadow)"/>
  
  <!-- Red Shield Center -->
  <path d="M26 35 C25 46 32 57 40 59 C48 57 55 46 54 35 C53 28 47 24 40 24 C33 24 27 28 26 35 Z" fill="url(#wbsscRed)"/>
  
  <!-- Inner Biswa Bangla / Emblem Motif -->
  <!-- Central golden torch/pillar -->
  <circle cx="40" cy="35" r="4.5" fill="#FDE047"/>
  <path d="M37 42 C37 38 43 38 43 42 L42 53 C42 54 38 54 38 53 Z" fill="url(#wbsscGold)"/>
  <!-- Winged swirls -->
  <path d="M33 39 C30 45 34 50 37 51" stroke="#FDE047" stroke-width="2.5" stroke-linecap="round" fill="none"/>
  <path d="M47 39 C50 45 46 50 43 51" stroke="#FDE047" stroke-width="2.5" stroke-linecap="round" fill="none"/>
  
  <!-- Bottom Ribbon / Scroll -->
  <path d="M24 64 C30 62 36 65 40 65 C44 65 50 62 56 64 L58 68 C50 66 45 68 40 68 C35 68 30 66 22 68 Z" fill="url(#wbsscGold)"/>
  <rect x="30" y="66" width="20" height="3" rx="1.5" fill="#B45309"/>
</svg>